<?xml version="1.0" standalone="no"?>
<!DOCTYPE svg PUBLIC "-//W3C//DTD SVG 1.1//EN" "http://www.w3.org/Graphics/SVG/1.1/DTD/svg11.dtd" >
<svg xmlns="http://www.w3.org/2000/svg">
<metadata>Generated by IcoMoon</metadata>
<defs>
<font id="icomoon" horiz-adv-x="1024">
<font-face units-per-em="1024" ascent="960" descent="-64" />
<missing-glyph horiz-adv-x="1024" />
<glyph unicode="&#x20;" horiz-adv-x="512" d="" />
<glyph unicode="&#xe900;" horiz-adv-x="693" d="M403.699 936.593l-3.345 10.060c-33.545 17.797-73.734 17.797-107.279 0l-3.345-10.060-6.329-43.396c40.328 24.293 86.295 24.295 126.623-0.002l-6.325 43.398z" />
<glyph unicode="&#xe901;" horiz-adv-x="693" d="M410.014 893.192l-6.329 43.4-3.343 10.060c-17.717 9.399-37.286 13.784-56.752 13.255 2.213-1.456 30.948-21.233 4.838-48.522 20.998-0.314 41.961-6.367 61.586-18.192z" />
<glyph unicode="&#xe902;" horiz-adv-x="693" d="M162.819 573.176l75.581 313.116c4.965 20.569 17.969 38.29 36.102 49.194l18.568 11.167-54.466-373.477h-75.786z" />
<glyph unicode="&#xe903;" horiz-adv-x="693" d="M238.605 573.177l22.322 153.067c-33.864-33.864-61.161 0-61.161 0l-36.947-153.067h75.786z" />
<glyph unicode="&#xe904;" horiz-adv-x="693" d="M530.598 573.176l-75.581 313.116c-4.965 20.569-17.97 38.29-36.103 49.194l-18.568 11.167 54.466-373.477h75.786z" />
<glyph unicode="&#xe905;" glyph-name="chats" d="M998.206 265.465c-0.113 70.407-23.232 138.847-65.833 194.901-42.604 56.052-102.355 96.65-170.16 115.607-2.489 57.817-18.125 114.302-45.718 165.168s-66.418 94.774-113.527 128.385c-47.107 33.611-101.258 56.040-158.334 65.583s-115.575 5.953-171.055-10.503c-55.48-16.457-106.478-45.345-149.119-84.468s-75.801-87.45-96.963-141.311c-21.161-53.86-29.766-111.837-25.16-169.522s22.301-113.562 51.74-163.383l-51.41-185.764 185.738 51.305c53.764-31.812 114.553-49.85 176.967-52.513 13.246-47.655 37.279-91.622 70.241-128.499 32.962-36.875 73.97-65.67 119.847-84.157 45.875-18.485 95.39-26.165 144.712-22.444 49.32 3.721 97.122 18.742 139.708 43.901l156.856-43.402-43.404 156.882c29.465 49.709 44.969 106.449 44.875 164.234zM197.646 294.768l-111.222-30.773 30.772 111.225-7.010 10.946c-42.679 66.935-59.143 147.264-46.236 225.59s54.279 149.132 116.178 198.831c61.899 49.699 139.966 74.794 219.232 70.474s154.144-37.75 210.274-93.881c56.134-56.131 89.566-131.011 93.885-210.277 4.319-79.263-20.779-157.331-70.477-219.231-49.701-61.897-120.501-103.272-198.827-116.179s-158.662 3.56-225.594 46.238l-10.975 7.037zM912.977 28.394l-82.553 22.843-11.001-7.165c-33.758-21.869-72.066-35.735-112.002-40.535-39.936-4.802-80.439-0.412-118.419 12.837-37.977 13.246-72.428 35-100.714 63.596-28.289 28.596-49.664 63.275-62.498 101.397 85.178 10.012 164.494 48.44 225.141 109.082 60.647 60.644 99.084 139.957 109.101 225.136 38.119-12.839 72.799-34.217 101.392-62.506 28.591-28.289 50.341-62.734 63.588-100.712s17.636-78.483 12.839-118.416c-4.797-39.933-18.658-78.241-40.524-111.999l-7.192-11.004 22.843-82.553zM352.715 412.501h58.394v-58.394h-58.394v58.394zM440.362 648.126c0.037-8.118-1.636-16.156-4.91-23.584-3.277-7.428-8.079-14.081-14.1-19.53l-68.608-62.805v-71.26h58.394v45.45l49.625 45.424c14.336 13.115 25.172 29.599 31.531 47.957 6.359 18.361 8.040 38.014 4.886 57.186s-11.038 37.256-22.943 52.612c-11.902 15.356-27.448 27.5-45.229 35.333s-37.234 11.11-56.598 9.529c-19.367-1.581-38.030-7.967-54.306-18.58-16.274-10.613-29.643-25.118-38.899-42.202s-14.105-36.209-14.108-55.639h58.394c0.326 15.279 6.622 29.822 17.539 40.511s25.589 16.673 40.871 16.673c15.279 0 29.951-5.984 40.868-16.673s17.214-25.232 17.537-40.511l0.055 0.108z" />
<glyph unicode="&#xe906;" horiz-adv-x="693" d="M493.645 726.244c-27.697-39.901-57.137-5.526-61.078-0.579l22.239-152.488h75.786l-36.947 153.067z" />
<glyph unicode="&#xe907;" horiz-adv-x="693" d="M691.713 106.871h-690.009c-0.567-6.757-1.135-13.417-1.704-19.996 88.333-89.483 211.034-144.965 346.709-144.965s258.375 55.481 346.709 144.973c-0.568 6.571-1.138 13.231-1.705 19.988z" />
<glyph unicode="&#xe909;" horiz-adv-x="693" d="M322.749-29.756c0 0 0 76.558 0 100.981s23.959 33.768 23.959 33.768c-0.628 0.629-1.199 1.25-1.767 1.879h-343.237c-0.567-6.757-1.135-13.417-1.704-19.996 87.373-88.516 208.382-143.715 342.302-144.908-19.035 10.175-19.553 28.277-19.553 28.277z" />
<glyph unicode="&#xe90a;" glyph-name="hamburger" horiz-adv-x="1306" d="M33.537 855.842c0 39.003 31.618 70.621 70.621 70.621h1129.932c39.004 0 70.621-31.618 70.621-70.621s-31.617-70.621-70.621-70.621h-1129.932c-39.003 0-70.621 31.618-70.621 70.621zM33.537 432.117c0 39.004 31.618 70.621 70.621 70.621h1129.932c39.004 0 70.621-31.617 70.621-70.621s-31.617-70.621-70.621-70.621h-1129.932c-39.003 0-70.621 31.617-70.621 70.621zM33.537 8.393c0 39.004 31.618 70.621 70.621 70.621h1129.932c39.004 0 70.621-31.617 70.621-70.621s-31.617-70.621-70.621-70.621h-1129.932c-39.003 0-70.621 31.617-70.621 70.621z" />
<glyph unicode="&#xe90b;" glyph-name="x" d="M225.835 652.502l225.835-225.835-225.835-225.835c-16.683-16.683-16.683-43.691 0-60.331s43.691-16.683 60.331 0l225.835 225.835 225.835-225.835c16.683-16.683 43.691-16.683 60.331 0s16.683 43.691 0 60.331l-225.835 225.835 225.835 225.835c16.683 16.683 16.683 43.691 0 60.331s-43.691 16.683-60.331 0l-225.835-225.835-225.835 225.835c-16.683 16.683-43.691 16.683-60.331 0s-16.683-43.691 0-60.331z" />
<glyph unicode="&#xe90c;" horiz-adv-x="693" d="M49.513 43.085h594.402c6.123 4.717 12.128 9.579 18.016 14.586-0.271 7.531-6.449 13.554-14.047 13.554h-602.34c-7.6 0-13.776-6.023-14.048-13.554 5.888-5.007 11.895-9.869 18.017-14.586z" />
<glyph unicode="&#xe90d;" horiz-adv-x="693" d="M42.905 576.929c-10.332 0-18.751-8.333-18.805-18.665-0.064-12.49-0.197-25.041-0.384-37.628h645.988c-0.185 12.585-0.32 25.138-0.383 37.628-0.054 10.332-8.473 18.665-18.805 18.665-33.744 0-573.865 0-607.611 0z" />
<glyph unicode="&#xe910;" glyph-name="chevron-down" d="M225.835 524.502l256-256c16.683-16.683 43.691-16.683 60.331 0l256 256c16.683 16.683 16.683 43.691 0 60.331s-43.691 16.683-60.331 0l-225.835-225.835-225.835 225.835c-16.683 16.683-43.691 16.683-60.331 0s-16.683-43.691 0-60.331z" />
<glyph unicode="&#xe911;" glyph-name="chevron-up" d="M798.165 328.832l-256 256c-16.683 16.683-43.691 16.683-60.331 0l-256-256c-16.683-16.683-16.683-43.691 0-60.331s43.691-16.683 60.331 0l225.835 225.835 225.835-225.835c16.683-16.683 43.691-16.683 60.331 0s16.683 43.691 0 60.331z" />
<glyph unicode="&#xe912;" horiz-adv-x="693" d="M239.153 576.929c-100.791 0-183.675 0-196.248 0-10.332 0-18.751-8.333-18.805-18.665-0.064-12.49-0.197-25.041-0.384-37.628h214.23c0.744 1.213 1.207 1.877 1.207 1.877-27.776 27.776 0 54.416 0 54.416z" />
<glyph unicode="&#xe913;" horiz-adv-x="693" d="M23.738 522.512c-2.074-145.33-11.941-295.798-22.195-417.511h690.324c-10.253 121.713-20.12 272.182-22.195 417.511h-645.933z" />
<glyph unicode="&#xe914;" horiz-adv-x="693" d="M346.705 153.685l-92.337 286.622c-51.302 30.61-15.22 82.205-15.22 82.205h-215.409c-2.074-145.33-11.941-295.798-22.195-417.511h345.161c-25.975 25.971 0 48.684 0 48.684z" />
<glyph unicode="&#xe915;" horiz-adv-x="693" d="M346.703 153.685c87.363 0 158.184 70.82 158.184 158.183s-70.821 158.184-158.184 158.184c-87.363 0-158.183-70.821-158.183-158.184s70.82-158.183 158.183-158.183z" />
<glyph unicode="&#xe916;" horiz-adv-x="693" d="M504.578 321.735c-3.922 63.673-45.5 117.152-102.748 138.438l-1.261-12.639c-1.171-11.744 4.142-23.227 13.926-29.829 17.261-11.646 43.572-35.11 53.185-74.181 3.153-12.819 14.718-21.789 27.92-21.789h8.978z" />
<glyph unicode="&#xe917;" horiz-adv-x="693" d="M421.63 251.45l-22.575 34.985c-3.907 1.113-2.487 5.43-2.487 5.43l-19.904 36.166c-5.137-0.35-4.536 4.969-4.536 4.969l-6.146 1.201-23.201 48.003-19.16 16.767c-55.45-8.551-69.254 41.336-69.254 41.336-39.877-28.72-65.846-75.545-65.846-128.44 0-87.363 70.82-158.182 158.183-158.182 42.883 0 81.773 17.069 110.264 44.779-46.343 9.952-35.337 52.987-35.337 52.987z" />
<glyph unicode="&#xe918;" horiz-adv-x="693" d="M476.47 274.187c-2.114 1.368-6.777 3.918-13.81 5.244-0.791 0.148-1.233 1-0.886 1.725 0.346 0.728-0.094 1.583-0.887 1.726-2.44 0.441-7.674 1.151-15.112 0.875-0.851-0.032-1.44 0.777-1.221 1.601 0.248 0.941-0.438 1.875-1.418 1.907-3.563 0.118-11.519 0.076-19.578-2.013-0.877-0.227-1.744 0.4-1.794 1.305l-0.020 0.376c-0.063 1.143-1.042 1.954-2.177 1.809-3.203-0.411-9.107-1.538-16.168-4.621-0.784-0.342-1.714 0.175-1.762 1.028-0.072 1.283-1.511 2.003-2.577 1.283-5.534-3.735-19.928-12.593-36.224-15.88-1.094-0.221-1.756 1.181-0.895 1.889 16.882 13.905 38.208 21.010 46.636 23.43 1.564 0.449 2.056 2.408 0.92 3.547-0.801 0.804-0.632 2.133 0.384 2.639 8.887 4.419 14.882 9.312 17.93 12.132 1.073 0.992 1.073 2.631 0.006 3.631l-0.352 0.33c-0.853 0.8-0.752 2.171 0.201 2.852 8.717 6.221 15.331 14.028 18.16 17.638 0.788 1.004 0.414 2.479-0.754 2.992-0.986 0.434-1.251 1.705-0.529 2.502 6.423 7.108 10.052 12.857 11.632 15.628 0.514 0.901 0.034 2.041-0.97 2.301-1.002 0.26-1.476 1.397-0.968 2.303 4.5 8.019 5.842 14.718 6.242 17.935 0.133 1.068-0.814 1.954-1.871 1.754-3.185-0.608-9.783-2.38-17.494-7.389-0.869-0.564-2.034-0.165-2.36 0.818-0.324 0.984-1.493 1.39-2.358 0.819-2.665-1.756-8.166-5.749-14.844-12.619-0.749-0.772-2.034-0.591-2.531 0.365-0.589 1.132-2.084 1.41-3.035 0.559-3.418-3.056-10.781-10.161-16.426-19.262-0.617-0.993-1.981-1.184-2.832-0.384l-0.354 0.33c-1.068 1.001-2.703 0.897-3.623-0.24-2.615-3.225-7.111-9.523-10.947-18.678-0.439-1.047-1.754-1.302-2.608-0.555-1.211 1.060-3.134 0.443-3.482-1.147-1.937-8.873-7.998-31.888-21.774-49.952-0.672-0.883-2.082-0.29-1.929 0.81 3.458 24.632 15.15 46.884 20.12 55.466 0.956 1.652-0.201 3.748-2.068 3.746-1.239 0-2.066 1.344-1.634 2.543 3.909 10.827 5.068 19.758 5.405 24.578 0.119 1.698-1.147 3.087-2.8 3.087h-0.547c-1.318 0-2.295 1.247-2.036 2.582 2.376 12.223 1.797 24.116 1.34 29.435-0.127 1.492-1.596 2.452-2.967 1.929-1.123-0.43-2.308 0.477-2.332 1.714-0.197 11.151-1.646 18.922-2.486 22.535-0.273 1.173-1.547 1.759-2.575 1.183-1.026-0.577-2.295 0.014-2.575 1.184-2.487 10.403-6.558 17.162-8.712 20.21-0.704 0.997-2.177 0.997-2.881 0-2.154-3.048-6.224-9.807-8.711-20.21-0.281-1.172-1.549-1.76-2.575-1.184-1.028 0.577-2.303-0.008-2.575-1.183-0.837-3.613-2.288-11.382-2.485-22.535-0.022-1.237-1.207-2.144-2.333-1.714-1.368 0.523-2.837-0.435-2.966-1.929-0.456-5.318-1.036-17.212 1.34-29.435 0.258-1.334-0.718-2.582-2.037-2.582h-0.547c-1.65 0-2.917-1.389-2.799-3.087 0.336-4.822 1.495-13.751 5.405-24.578 0.431-1.197-0.393-2.543-1.634-2.543-1.867 0.002-3.027-2.094-2.071-3.746 4.968-8.582 16.661-30.834 20.12-55.466 0.153-1.1-1.255-1.69-1.927-0.81-13.776 18.064-19.835 41.079-21.773 49.952-0.348 1.591-2.271 2.208-3.482 1.147-0.855-0.747-2.17-0.493-2.609 0.555-3.836 9.155-8.331 15.453-10.946 18.678-0.921 1.137-2.558 1.241-3.623 0.24l-0.354-0.33c-0.853-0.8-2.216-0.609-2.832 0.384-5.646 9.101-13.009 16.206-16.427 19.262-0.952 0.851-2.448 0.573-3.034-0.559-0.495-0.954-1.78-1.137-2.532-0.365-6.679 6.87-12.181 10.861-14.844 12.619-0.864 0.571-2.033 0.164-2.358-0.819s-1.492-1.382-2.361-0.818c-7.713 5.009-14.309 6.783-17.494 7.389-1.058 0.201-2.002-0.686-1.871-1.754 0.4-3.22 1.742-9.916 6.242-17.935 0.507-0.903 0.034-2.041-0.968-2.303-1.005-0.26-1.484-1.4-0.971-2.301 1.581-2.771 5.208-8.52 11.632-15.628 0.722-0.8 0.457-2.068-0.529-2.502-1.167-0.513-1.541-1.988-0.753-2.992 2.829-3.61 9.443-11.416 18.16-17.638 0.951-0.678 1.051-2.052 0.201-2.852l-0.352-0.33c-1.068-1-1.069-2.639 0.006-3.631 3.050-2.818 9.043-7.711 17.932-12.132 1.016-0.506 1.187-1.835 0.383-2.639-1.137-1.139-0.644-3.098 0.921-3.547 8.427-2.421 29.753-9.525 46.636-23.43 0.861-0.71 0.198-2.11-0.893-1.889-16.296 3.287-30.69 12.145-36.224 15.88-1.066 0.718-2.506 0-2.577-1.283-0.048-0.855-0.979-1.37-1.762-1.028-7.062 3.084-12.965 4.211-16.169 4.621-1.135 0.145-2.113-0.666-2.177-1.809l-0.018-0.314c-0.054-0.967-0.921-1.593-1.798-1.367-8.061 2.088-16.015 2.128-19.578 2.013-0.979-0.031-1.667-0.966-1.416-1.907 0.219-0.823-0.372-1.633-1.221-1.601-7.439 0.277-12.673-0.434-15.112-0.875-0.793-0.144-1.233-0.998-0.887-1.726s-0.095-1.577-0.887-1.725c-7.035-1.326-11.698-3.876-13.809-5.244-0.7-0.453-0.756-1.45-0.11-1.979 1.949-1.592 6.301-4.643 13.146-6.738 0.769-0.237 1.115-1.13 0.692-1.813s-0.081-1.583 0.69-1.814c2.376-0.71 7.499-1.992 14.923-2.541 0.849-0.064 1.344-0.933 1.038-1.726-0.352-0.907 0.229-1.911 1.197-2.052 3.529-0.511 11.44-1.348 19.682-0.165 0.897 0.13 1.688-0.59 1.638-1.495l-0.020-0.376c-0.063-1.143 0.819-2.058 1.963-2.038 3.229 0.053 9.22 0.522 16.579 2.806 0.818 0.254 1.684-0.364 1.637-1.218-0.072-1.282 1.28-2.155 2.42-1.559 5.9 3.092 21.133 10.282 37.653 11.766 1.493 0.133 2.054-1.907 0.698-2.545-7.059-3.324-14.17-4.772-17.415-5.301-0.789-0.13-1.081-1.088-0.522-1.714 0.372-0.416 0.209-1.058-0.286-1.239-4.473-1.636-7.541-3.676-9.111-4.876-0.553-0.421-0.599-1.225-0.104-1.78l0.164-0.183c0.395-0.441 0.306-1.109-0.177-1.386-4.438-2.529-7.89-5.961-9.376-7.56-0.418-0.449-0.268-1.203 0.301-1.519 0.467-0.26 0.547-0.905 0.175-1.249-3.34-3.102-5.276-5.701-6.127-6.966-0.276-0.41-0.073-0.998 0.41-1.184s0.681-0.774 0.41-1.185c-2.429-3.665-3.27-6.87-3.556-8.421-0.098-0.529 0.327-1.002 0.863-0.967 1.573 0.107 4.854 0.583 8.769 2.579 0.442 0.224 1.001-0.040 1.131-0.541s0.693-0.77 1.132-0.543c1.352 0.701 4.156 2.33 7.613 5.299 0.384 0.328 1.014 0.179 1.222-0.316 0.25-0.601 0.982-0.834 1.476-0.469 1.758 1.294 5.557 4.336 8.572 8.46 0.328 0.45 1.002 0.461 1.396 0.020l0.164-0.183c0.495-0.555 1.296-0.601 1.78-0.098 1.37 1.424 3.744 4.244 5.876 8.501 0.235 0.471 0.893 0.56 1.265 0.145 0.559-0.626 1.545-0.446 1.762 0.326 1.179 4.178 4.71 14.872 11.77 22.869 1.609 1.816 3.941 2.822 6.367 2.822s4.76-1.006 6.366-2.825c7.058-8 10.59-18.692 11.77-22.87 0.217-0.771 1.203-0.952 1.762-0.326 0.369 0.415 1.028 0.326 1.264-0.145 2.132-4.257 4.506-7.077 5.876-8.501 0.483-0.501 1.284-0.456 1.78 0.098l0.163 0.183c0.396 0.443 1.068 0.43 1.396-0.020 3.015-4.124 6.815-7.166 8.573-8.46 0.493-0.364 1.225-0.131 1.476 0.469 0.205 0.493 0.837 0.644 1.221 0.316 3.46-2.969 6.262-4.598 7.614-5.299 0.439-0.229 1 0.040 1.131 0.543 0.131 0.501 0.69 0.765 1.131 0.541 3.915-1.996 7.196-2.472 8.769-2.579 0.537-0.035 0.96 0.438 0.863 0.967-0.284 1.551-1.127 4.756-3.553 8.421-0.272 0.411-0.073 0.998 0.41 1.185s0.686 0.775 0.41 1.184c-0.851 1.265-2.786 3.866-6.126 6.966-0.37 0.344-0.292 0.989 0.175 1.249 0.568 0.316 0.716 1.070 0.301 1.519-1.486 1.601-4.938 5.031-9.376 7.56-0.484 0.277-0.573 0.943-0.177 1.386l0.163 0.183c0.496 0.555 0.45 1.356-0.103 1.78-1.571 1.2-4.639 3.241-9.111 4.876-0.495 0.181-0.658 0.826-0.286 1.239 0.559 0.626 0.268 1.584-0.522 1.714-3.245 0.529-10.356 1.976-17.415 5.301-1.356 0.639-0.793 2.679 0.698 2.545 16.519-1.485 31.754-8.676 37.653-11.766 1.139-0.597 2.491 0.277 2.42 1.559-0.048 0.855 0.819 1.471 1.637 1.218 7.359-2.283 13.35-2.752 16.579-2.806 1.146-0.020 2.026 0.895 1.963 2.038l-0.019 0.376c-0.050 0.905 0.742 1.625 1.638 1.495 8.242-1.183 16.152-0.343 19.682 0.165 0.968 0.139 1.549 1.146 1.197 2.052-0.308 0.793 0.189 1.663 1.039 1.726 7.424 0.548 12.547 1.831 14.923 2.541 0.772 0.231 1.113 1.13 0.69 1.814s-0.080 1.579 0.692 1.813c6.845 2.096 11.197 5.146 13.146 6.739 0.644 0.532 0.589 1.53-0.111 1.982z" />
<glyph unicode="&#xe919;" horiz-adv-x="693" d="M350.849 263.488c-0.007 2.422-2.093 4.352-4.565 4.114-2.151-0.209-3.73-2.139-3.738-4.301-0.191-49.747-3.655-69.46-4.977-75.195-0.229-0.992 0.531-1.937 1.549-1.937h15.16c1.020 0 1.778 0.943 1.549 1.935-1.324 5.742-4.794 25.498-4.977 75.384z" />
<glyph unicode="&#xe91a;" horiz-adv-x="693" d="M351.813 225.451c-0.756-2.304-3.028-3.921-5.635-3.669-2.189 0.213-3.913 1.805-4.557 3.836-1.172-22.809-3.118-33.533-4.036-37.512-0.229-0.992 0.531-1.937 1.549-1.937h15.16c1.020 0 1.777 0.943 1.549 1.935-0.915 3.971-2.858 14.649-4.029 37.347z" />
<glyph unicode="&#xe91b;" horiz-adv-x="693" d="M355.231 292.933c4.949 18.145 13.002 33.327 16.906 40.070 0.957 1.652-0.201 3.748-2.067 3.746-1.239 0-2.067 1.344-1.635 2.543 3.91 10.827 5.069 19.758 5.405 24.579 0.119 1.698-1.147 3.088-2.799 3.088h-0.547c-1.318 0-2.295 1.247-2.036 2.581 2.376 12.223 1.797 24.116 1.34 29.436-0.127 1.491-1.597 2.451-2.967 1.929-1.123-0.43-2.308 0.477-2.333 1.714-0.197 11.151-1.646 18.921-2.485 22.534-0.273 1.173-1.547 1.76-2.575 1.184-1.026-0.577-2.295 0.014-2.575 1.183-0.342 1.43-0.715 2.786-1.109 4.078-4.635-1.614-9.043-5.406-9.043-14.009v-113.642c0 0-0.171-10.107 8.523-11.014z" />
<glyph unicode="&#xe91c;" horiz-adv-x="693" d="M244.952 371.648c7.737-7.737 67.303-71.559 76.442-81.354 1.372-1.471 3.295-2.36 5.305-2.277 1.376 0.058 2.913 0.552 4.317 1.981-7.93 14.804-11.836 29.888-13.319 36.683-0.346 1.583-2.25 2.201-3.461 1.163-0.873-0.747-2.183-0.519-2.627 0.539-3.832 9.149-8.326 15.445-10.941 18.671-0.924 1.142-2.555 1.251-3.627 0.247l-0.296-0.278c-0.905-0.849-2.269-0.67-2.882 0.316-5.645 9.107-13.014 16.218-16.434 19.276-0.943 0.841-2.416 0.578-3.017-0.525-0.521-0.956-1.759-1.213-2.519-0.431-6.691 6.887-12.205 10.888-14.874 12.648-0.865 0.571-2.034 0.164-2.358-0.819s-1.491-1.382-2.36-0.818c-4.082 2.651-7.844 4.389-10.961 5.534-0.419-3.36 0.237-7.182 3.611-10.556z" />
<glyph unicode="&#xe91d;" horiz-adv-x="693" d="M455.211 362.072c-1.001 0.26-1.475 1.398-0.968 2.303 1.301 2.316 2.329 4.518 3.156 6.56-4.321 0.098-9.052-0.933-12.781-4.663-7.759-7.759-54.685-57.379-69.759-73.33-2.664-2.82-2.812-7.178-0.35-10.175l0.846-1.028c13.456 7.912 26.939 12.332 33.231 14.138 1.557 0.447 2.050 2.388 0.939 3.53-0.801 0.823-0.66 2.146 0.368 2.656 8.882 4.417 14.874 9.309 17.926 12.126 1.080 0.998 1.084 2.631 0.010 3.635l-0.297 0.278c-0.905 0.85-0.815 2.22 0.13 2.895 8.723 6.224 15.342 14.037 18.172 17.647 0.779 0.994 0.421 2.448-0.716 2.977-0.99 0.46-1.325 1.68-0.593 2.49 6.441 7.122 10.076 12.883 11.658 15.659 0.513 0.902 0.031 2.042-0.971 2.302z" />
<glyph unicode="&#xe91e;" horiz-adv-x="693" d="M294.358 286.436c-1.042 0.704-2.444 0.030-2.571-1.201-0.091-0.887-0.951-1.467-1.767-1.112-7.069 3.087-12.977 4.214-16.178 4.623-1.131 0.145-2.102-0.672-2.166-1.809l-0.018-0.314c-0.053-0.966-0.921-1.592-1.797-1.366-8.061 2.088-16.015 2.128-19.579 2.013-0.994-0.034-1.688-0.998-1.404-1.953 0.239-0.799-0.471-1.581-1.306-1.551-7.401 0.268-12.609-0.437-15.041-0.879-0.793-0.143-1.231-0.998-0.887-1.725 0.346-0.728-0.095-1.577-0.887-1.726-3.335-0.628-6.13-1.533-8.379-2.456 1.626-1.869 4.257-3.581 8.519-4.267 9.346-1.501 61.825-3.971 79.57-4.777 3.51-0.159 6.725 1.931 8.011 5.2l0.306 0.78c-11.165 4.052-20.28 9.726-24.426 12.521z" />
<glyph unicode="&#xe91f;" horiz-adv-x="693" d="M399.056 286.436c1.042 0.704 2.444 0.030 2.571-1.201 0.091-0.887 0.951-1.467 1.767-1.112 7.069 3.087 12.977 4.214 16.178 4.623 1.131 0.145 2.101-0.672 2.165-1.809l0.019-0.314c0.053-0.966 0.92-1.592 1.797-1.366 8.061 2.088 16.015 2.128 19.579 2.013 0.994-0.034 1.688-0.998 1.404-1.953-0.239-0.799 0.471-1.581 1.306-1.551 7.401 0.268 12.609-0.437 15.041-0.879 0.793-0.143 1.233-0.998 0.887-1.725s0.095-1.577 0.887-1.726c3.334-0.628 6.13-1.533 8.379-2.456-1.626-1.869-4.257-3.581-8.519-4.267-9.346-1.501-61.825-3.971-79.57-4.777-3.51-0.159-6.725 1.931-8.011 5.2l-0.306 0.78c11.165 4.052 20.28 9.726 24.426 12.521z" />
<glyph unicode="&#xe920;" horiz-adv-x="693" d="M380.589 253.688c0.559 0.626 0.268 1.584-0.523 1.714-2.688 0.439-8.032 1.511-13.8 3.756-0.964-1.72-1.855-4.702 1.042-7.6 4.432-4.432 32.44-28.914 32.44-28.914s2.38-1.788 5.858-0.281c-0.376 0.708-0.795 1.44-1.297 2.198-0.273 0.411-0.073 0.998 0.41 1.184s0.686 0.776 0.41 1.185c-0.851 1.265-2.786 3.865-6.126 6.966-0.37 0.344-0.292 0.989 0.175 1.249 0.569 0.316 0.716 1.070 0.301 1.519-1.486 1.601-4.938 5.031-9.376 7.56-0.484 0.277-0.573 0.943-0.177 1.386l0.163 0.183c0.495 0.555 0.45 1.356-0.103 1.78-1.571 1.199-4.639 3.241-9.111 4.876-0.493 0.179-0.656 0.823-0.284 1.239z" />
<glyph unicode="&#xe921;" horiz-adv-x="693" d="M325.799 252.227c-4.971-4.969-31.434-28.578-31.434-28.578s-3.107-2.925-0.968-6.721c0.581 0.243 1.176 0.51 1.792 0.823 0.442 0.225 1.001-0.040 1.132-0.541s0.692-0.769 1.131-0.543c1.352 0.702 4.156 2.33 7.614 5.299 0.384 0.328 1.014 0.179 1.221-0.316 0.251-0.6 0.982-0.833 1.476-0.469 1.758 1.295 5.558 4.337 8.572 8.461 0.328 0.449 1.002 0.461 1.397 0.019l0.163-0.182c0.495-0.555 1.297-0.601 1.78-0.098 1.37 1.423 3.744 4.243 5.876 8.5 0.235 0.472 0.893 0.561 1.264 0.145 0.559-0.626 1.543-0.445 1.762 0.327 0.818 2.893 2.762 8.906 6.224 14.989-2.062 1.097-5.692 2.192-9-1.116z" />
<glyph unicode="&#xe922;" horiz-adv-x="693" d="M355.867 384.002v-38.688c0 0-1.259-14.313 14.184-8.568-1.239 0-2.066 1.344-1.634 2.543 3.909 10.827 5.068 19.758 5.405 24.579 0.119 1.698-1.147 3.088-2.8 3.088h-0.547c-1.318 0-2.295 1.247-2.036 2.581 2.376 12.223 1.797 24.116 1.34 29.435 0.004-0.002-13.911-2.612-13.911-14.971z" />
<glyph unicode="&#xe923;" horiz-adv-x="693" d="M429.563 338.064c-5.319-5.319-18.586-19.733-24.786-26.496-3.561-3.886-0.406-10.143 4.831-9.537 0.089 0.010 0.181 0.022 0.273 0.034 8.882 4.416 14.873 9.308 17.926 12.125 1.080 0.998 1.084 2.631 0.010 3.636l-0.296 0.278c-0.905 0.849-0.815 2.219 0.129 2.895 8.723 6.224 15.343 14.036 18.172 17.647 0.78 0.994 0.422 2.447-0.716 2.976 0.002 0-8.49 3.494-15.541-3.559z" />
<glyph unicode="&#xe924;" horiz-adv-x="693" d="M300.572 324.144c4.344-4.364 11.784-2.529 13.569 3.362 0.034 0.11 0.068 0.223 0.1 0.335-0.873-0.748-2.183-0.519-2.627 0.539-3.832 9.149-8.326 15.445-10.941 18.671-0.925 1.142-2.555 1.251-3.627 0.247l-0.296-0.278c-0.905-0.849-2.269-0.67-2.882 0.318-5.645 9.107-13.014 16.218-16.435 19.276-0.943 0.841-2.416 0.579-3.016-0.525-0.083-0.155-0.193-0.285-0.31-0.402-1.225-1.653-5.486-8.105-1.3-12.987 3.557-4.149 19.564-20.316 27.764-28.556z" />
<glyph unicode="&#xe925;" horiz-adv-x="1049" d="M289.561 699.707c-9.267 0-16.78 7.514-16.78 16.781s7.513 16.781 16.78 16.781c18.504 0 33.561 15.055 33.561 33.56v33.562c0 18.504-15.057 33.56-33.561 33.56-9.267 0-16.78 7.514-16.78 16.781s7.513 16.78 16.78 16.78c37.011 0 67.122-30.11 67.122-67.121v-33.562c0-37.011-30.111-67.122-67.122-67.122z" />
<glyph unicode="&#xe926;" horiz-adv-x="1049" d="M481.12 659.195l-131.364 131.364c-6.293 6.295-14.829 9.832-23.732 9.832h-39.319c-8.9 0-17.437-3.537-23.732-9.832l-131.363-131.364c-6.294-6.295-9.83-14.829-9.83-23.729v-338.492c0-18.537 15.027-33.561 33.562-33.561h302.049c18.533 0 33.561 15.024 33.561 33.561v338.489c-0.002 8.9-3.539 17.437-9.832 23.732z" />
<glyph unicode="&#xe927;" horiz-adv-x="1049" d="M121.756 635.453v-338.489c0-18.537 15.025-33.561 33.561-33.561h268.488c18.536 0 33.561 15.024 33.561 33.561v338.489c0 8.9-3.537 17.437-9.829 23.732l-131.364 131.364c-6.295 6.294-14.829 9.829-23.732 9.829h-5.758c-8.899 0-17.437-3.537-23.732-9.829l-131.363-131.364c-6.295-6.295-9.832-14.832-9.832-23.732z" />
<glyph unicode="&#xe928;" horiz-adv-x="1049" d="M289.561 666.147c27.803 0 50.342 22.538 50.342 50.341s-22.539 50.341-50.342 50.341c-27.803 0-50.342-22.538-50.342-50.341s22.539-50.341 50.342-50.341z" />
<glyph unicode="&#xe929;" horiz-adv-x="1049" d="M356.683 498.341c9.267 0 16.78 7.514 16.78 16.781v3.226c0 35.233-28.662 63.896-63.895 63.896h-3.227v33.561c0 9.267-7.513 16.78-16.78 16.78s-16.78-7.513-16.78-16.78v-33.561h-3.227c-35.233 0-63.895-28.663-63.895-63.896 0-29.374 19.901-54.864 48.399-61.988l62.866-15.716c13.529-3.383 22.979-15.486 22.979-29.43 0-16.729-13.608-30.335-30.335-30.335h-40.013c-16.727 0-30.335 13.607-30.335 30.335v3.226c0 9.267-7.513 16.78-16.78 16.78s-16.78-7.513-16.78-16.78v-3.226c0-35.233 28.662-63.896 63.895-63.896h3.227v-33.561c0-9.267 7.513-16.781 16.78-16.781s16.78 7.514 16.78 16.781v33.561h3.227c35.233 0 63.895 28.663 63.895 63.896 0 29.374-19.901 54.864-48.399 61.988l-62.866 15.716c-13.529 3.383-22.979 15.486-22.979 29.43 0 16.729 13.608 30.335 30.335 30.335h40.013c16.727 0 30.335-13.607 30.335-30.335v-3.226c0-9.267 7.513-16.781 16.78-16.781z" />
<glyph unicode="&#xe92a;" horiz-adv-x="1049" d="M776.194 95.609h-201.366c-18.536 0-33.56-15.024-33.56-33.56v-117.464h268.488v117.464c0 18.536-15.025 33.56-33.562 33.56z" />
<glyph unicode="&#xe92b;" horiz-adv-x="1049" d="M809.757 62.049h-100.684c-18.536 0-33.56-15.025-33.56-33.562v-83.902h134.244v117.464z" />
<glyph unicode="&#xe92c;" horiz-adv-x="1049" d="M792.976 313.756h-117.463c-55.607 0-100.684-45.076-100.684-100.683v-117.464h100.684v83.903c0 18.536 15.024 33.561 33.56 33.561h83.903c27.803 0 50.341 22.538 50.341 50.342s-22.538 50.341-50.341 50.341z" />
<glyph unicode="&#xe92d;" horiz-adv-x="1049" d="M1034.852 337.488c-13.106 13.106-34.356 13.106-47.462 0l-124.412-124.412h-153.905c-18.533 0-33.56-15.025-33.56-33.561v-83.903h100.682v16.781c0 18.536 15.028 33.561 33.561 33.561h60.174c13.444 0 26.090 5.235 35.595 14.743l129.329 129.33c13.108 13.107 13.108 34.355-0.001 47.461z" />
<glyph unicode="&#xe92e;" horiz-adv-x="1049" d="M792.967 235.449h-11.187c-9.267 0-16.78 7.513-16.78 16.78v22.374c0 9.267 7.513 16.781 16.78 16.781h11.187c15.446 0 27.966-12.523 27.966-27.966 0-15.449-12.52-27.969-27.966-27.969z" />
<glyph unicode="&#xe92f;" horiz-adv-x="1049" d="M474.147 11.707h-201.366c-18.537 0-33.562-15.025-33.562-33.561v-33.561h268.489v33.561c0 18.536-15.025 33.561-33.561 33.561z" />
<glyph unicode="&#xe930;" horiz-adv-x="1049" d="M507.708-21.854h-100.683c-18.537 0-33.562-15.025-33.562-33.561h134.245v33.561z" />
<glyph unicode="&#xe931;" horiz-adv-x="1049" d="M256 229.853h117.464c55.606 0 100.683-45.076 100.683-100.682h-218.147c-27.803 0-50.341 22.538-50.341 50.341s22.538 50.341 50.341 50.341z" />
<glyph unicode="&#xe932;" horiz-adv-x="1049" d="M255.991 151.546h11.187c9.267 0 16.78 7.514 16.78 16.781v22.374c0 9.267-7.513 16.78-16.78 16.78h-11.187c-15.446 0-27.966-12.522-27.966-27.966 0-15.449 12.52-27.969 27.966-27.969z" />
<glyph unicode="&#xe933;" horiz-adv-x="1049" d="M185.997 129.173l-124.412 124.412c-13.106 13.106-34.356 13.106-47.462 0-13.108-13.105-13.108-34.355 0-47.461l129.329-129.329c9.507-9.508 22.151-14.744 35.596-14.744h60.17c18.534 0 33.561-15.024 33.561-33.561v-16.78h201.366v117.463h-288.149z" />
<glyph unicode="&#xe934;" horiz-adv-x="1049" d="M239.219 62.049c18.534 0 33.562-15.025 33.562-33.562v-16.78h100.682v16.78c0 18.537-15.024 33.562-33.56 33.562h-100.684z" />
<glyph unicode="&#xe935;" horiz-adv-x="1049" d="M289.561 699.707c-37.011 0-67.122 30.111-67.122 67.122v33.562c0 37.011 30.111 67.121 67.122 67.121 9.267 0 16.78-7.513 16.78-16.78s-7.513-16.781-16.78-16.781c-18.504 0-33.561-15.055-33.561-33.56v-33.562c0-18.504 15.057-33.56 33.561-33.56 9.267 0 16.78-7.514 16.78-16.781s-7.513-16.781-16.78-16.781z" />
<glyph unicode="&#xe936;" horiz-adv-x="1105" d="M1095.588 452.115v-457.384c-0.001-13.855-5.504-27.143-15.299-36.942s-23.079-15.307-36.935-15.314h-310.12c-6.861 0.001-13.654 1.354-19.994 3.981-6.338 2.626-12.097 6.475-16.947 11.329-4.851 4.852-8.697 10.613-11.321 16.953s-3.975 13.133-3.972 19.994v457.384c-0.001 6.859 1.349 13.653 3.973 19.991s6.471 12.097 11.322 16.947c4.851 4.851 10.609 8.697 16.947 11.322s13.131 3.975 19.991 3.973h70.543v-0.158c-0.001-5.101 1.002-10.151 2.953-14.864s4.811-8.994 8.418-12.601c3.607-3.606 7.887-6.466 12.601-8.417 4.712-1.952 9.763-2.956 14.863-2.955h91.364c5.101-0.001 10.151 1.002 14.863 2.955 4.713 1.951 8.995 4.811 12.601 8.417 3.607 3.607 6.467 7.889 8.418 12.601 1.952 4.713 2.955 9.763 2.955 14.864v0.158h70.541c13.854-0.001 27.139-5.504 36.934-15.299s15.299-23.080 15.301-36.934zM826.090 162.544v74.639h-74.616v-74.639h74.616z" />
<glyph unicode="&#xe937;" horiz-adv-x="1105" d="M803.763 504.354v2.377c-0.001 5.1 1.002 10.151 2.953 14.863s4.813 8.994 8.418 12.601c3.607 3.607 7.889 6.467 12.601 8.418s9.763 2.955 14.863 2.953h91.364c5.101 0.001 10.151-1.002 14.864-2.953 4.712-1.951 8.994-4.811 12.601-8.418s6.466-7.889 8.418-12.601c1.951-4.712 2.955-9.763 2.953-14.863v-2.536c0.001-5.1-1.002-10.15-2.953-14.863-1.952-4.712-4.813-8.994-8.418-12.601-3.607-3.606-7.889-6.467-12.601-8.418s-9.763-2.955-14.864-2.953h-91.364c-5.1-0.001-10.15 1.002-14.863 2.953-4.712 1.951-8.994 4.813-12.601 8.418-3.606 3.607-6.467 7.889-8.418 12.601-1.951 4.713-2.955 9.763-2.953 14.863v0.159z" />
<glyph unicode="&#xe938;" horiz-adv-x="1105" d="M858.652 708.306v-162.743h-16.046c-5.101 0.001-10.151-1.002-14.864-2.955-4.712-1.951-8.994-4.811-12.601-8.417s-6.466-7.889-8.418-12.601c-1.951-4.713-2.955-9.763-2.953-14.864v-2.375h-70.543c-6.859 0.001-13.653-1.35-19.99-3.975-6.338-2.623-12.097-6.471-16.947-11.322s-8.699-10.609-11.323-16.947c-2.625-6.338-3.975-13.13-3.973-19.991v-336.757l-247.047-142.624v490.426l424.705 245.146z" />
<glyph unicode="&#xe939;" horiz-adv-x="1105" d="M433.942 463.165l-216.494 124.994 424.658 245.19 216.494-125.017-424.658-245.167z" />
<glyph unicode="&#xe93a;" horiz-adv-x="1105" d="M826.090 237.184h-74.617v-74.639h74.617v74.639z" />
<glyph unicode="&#xe93b;" horiz-adv-x="1105" d="M642.095 833.346l-424.637-245.19-208.143 120.173 424.637 245.191 208.143-120.174z" />
<glyph unicode="&#xe93c;" horiz-adv-x="1105" d="M433.944 463.161v-490.426l-424.681 245.19v490.381l0.045 0.023 424.636-245.169z" />
<glyph unicode="&#xe93d;" horiz-adv-x="1105" d="M768.062 291.814h-16.589c-4.201 0-8.231 1.669-11.202 4.64s-4.639 7.001-4.639 11.202v74.639c0 4.202 1.668 8.231 4.639 11.202s7.001 4.64 11.202 4.64h74.617c4.201 0 8.231-1.669 11.202-4.64s4.64-7 4.64-11.202v-10.659c0.003-3.748-1.323-7.377-3.743-10.24s-5.776-4.775-9.472-5.398c-3.697-0.621-7.494 0.088-10.717 2.002s-5.663 4.91-6.886 8.453h-43.799v-42.955h0.746c4.202 0 8.231-1.669 11.203-4.64s4.639-7 4.639-11.202c0-4.201-1.668-8.231-4.639-11.202s-7.001-4.64-11.203-4.64z" />
<glyph unicode="&#xe93e;" horiz-adv-x="1105" d="M768.062 1.614h-16.589c-4.201 0-8.231 1.669-11.202 4.64s-4.639 7-4.639 11.202v74.616c0 4.201 1.668 8.231 4.639 11.202s7.001 4.64 11.202 4.64h74.617c4.201 0 8.231-1.669 11.202-4.64s4.64-7.001 4.64-11.202v-15.254c0.038-2.080-0.333-4.149-1.094-6.085-0.76-1.938-1.894-3.705-3.339-5.204-1.443-1.498-3.168-2.697-5.076-3.53-1.908-0.831-3.96-1.28-6.040-1.318s-4.149 0.333-6.085 1.093c-1.938 0.761-3.705 1.896-5.204 3.339s-2.697 3.169-3.53 5.076c-0.831 1.908-1.279 3.96-1.318 6.040h-42.933v-42.933h0.746c4.202 0 8.231-1.668 11.203-4.639s4.639-7.001 4.639-11.202c0-4.202-1.668-8.231-4.639-11.202s-7.001-4.64-11.203-4.64z" />
<glyph unicode="&#xe93f;" horiz-adv-x="1105" d="M816.167 294.128c-2.079-0.003-4.139 0.404-6.060 1.201-1.921 0.795-3.666 1.963-5.135 3.434l-25.332 25.302c-1.471 1.471-2.638 3.218-3.434 5.14s-1.206 3.981-1.206 6.063c0 2.080 0.41 4.14 1.206 6.062s1.963 3.669 3.434 5.14 3.218 2.638 5.14 3.434c1.923 0.796 3.983 1.206 6.063 1.206s4.14-0.41 6.063-1.206c1.921-0.796 3.668-1.963 5.139-3.434l14.124-14.111 46.395 46.395c1.471 1.471 3.218 2.638 5.139 3.434 1.923 0.796 3.983 1.206 6.063 1.206s4.14-0.41 6.063-1.206c1.923-0.796 3.669-1.963 5.14-3.434s2.638-3.218 3.434-5.14c0.795-1.921 1.206-3.983 1.206-6.063s-0.411-4.14-1.206-6.062c-0.796-1.923-1.963-3.669-3.434-5.14l-57.597-57.597c-1.471-1.471-3.219-2.637-5.142-3.429-1.923-0.794-3.984-1.199-6.065-1.195z" />
<glyph unicode="&#xe940;" horiz-adv-x="1105" d="M816.167 1.615c-2.079-0.004-4.139 0.404-6.060 1.199-1.921 0.796-3.666 1.963-5.135 3.436l-25.332 25.302c-1.471 1.471-2.638 3.218-3.434 5.139-0.796 1.923-1.206 3.983-1.206 6.063s0.41 4.14 1.206 6.063c0.796 1.921 1.963 3.669 3.434 5.139s3.218 2.638 5.14 3.434 3.983 1.206 6.063 1.206c2.080 0 4.14-0.41 6.063-1.206 1.921-0.796 3.668-1.963 5.139-3.434l14.124-14.11 46.395 46.394c1.471 1.471 3.218 2.638 5.139 3.434 1.923 0.796 3.983 1.206 6.063 1.206s4.14-0.41 6.063-1.206c1.923-0.796 3.669-1.963 5.14-3.434s2.638-3.218 3.434-5.139c0.795-1.923 1.206-3.983 1.206-6.063s-0.411-4.14-1.206-6.063c-0.796-1.923-1.963-3.669-3.434-5.14l-57.597-57.597c-1.471-1.47-3.219-2.635-5.142-3.429s-3.984-1.199-6.065-1.194z" />
<glyph unicode="&#xe941;" horiz-adv-x="1105" d="M1025.116 329.138h-99.51c-4.202 0-8.231 1.669-11.202 4.64s-4.64 7.001-4.64 11.202c0 4.201 1.669 8.231 4.64 11.202s7 4.64 11.202 4.64h99.51c4.202 0 8.231-1.669 11.202-4.64s4.64-7.001 4.64-11.202c0-4.201-1.669-8.231-4.64-11.202s-7-4.64-11.202-4.64z" />
<glyph unicode="&#xe942;" horiz-adv-x="1105" d="M1025.116 184.026h-99.51c-4.202 0-8.231 1.669-11.202 4.64s-4.64 7-4.64 11.202c0 4.201 1.669 8.231 4.64 11.202s7 4.64 11.202 4.64h99.51c4.202 0 8.231-1.669 11.202-4.64s4.64-7.001 4.64-11.202c0-4.202-1.669-8.231-4.64-11.202s-7-4.64-11.202-4.64z" />
<glyph unicode="&#xe943;" horiz-adv-x="1105" d="M1025.116 38.908h-99.51c-4.202 0-8.231 1.669-11.202 4.64s-4.64 7-4.64 11.202c0 4.201 1.669 8.231 4.64 11.202s7 4.64 11.202 4.64h99.51c4.202 0 8.231-1.669 11.202-4.64s4.64-7.001 4.64-11.202c0-4.202-1.669-8.231-4.64-11.202s-7-4.64-11.202-4.64z" />
<glyph unicode="&#xe944;" d="M1024 448c0-282.77-229.23-512-512-512s-512 229.23-512 512c0 282.77 229.23 512 512 512s512-229.23 512-512z" />
<glyph unicode="&#xe945;" d="M681.244 696.889h-278.756c-16.494 0-29.867-13.372-29.867-29.867v-408.178c0-16.494 13.372-29.867 29.867-29.867h278.756c16.494 0 29.867 13.372 29.867 29.867v408.178c0 16.494-13.372 29.867-29.867 29.867z" />
<glyph unicode="&#xe946;" d="M412.444 657.067h258.844v-388.267h-258.844v388.267z" />
<glyph unicode="&#xe947;" d="M611.556 657.067h-139.378v39.822h39.822l-9.956 39.822h79.644l-9.956-39.822h39.822v-39.822z" />
<glyph unicode="&#xe948;" d="M492.089 567.467h-39.822c-2.641 0-5.172 1.049-7.039 2.916s-2.916 4.399-2.916 7.039v39.822c0 2.641 1.049 5.172 2.916 7.039s4.399 2.916 7.039 2.916h39.822c2.641 0 5.172-1.049 7.039-2.916s2.916-4.399 2.916-7.039v-39.822c0-2.641-1.049-5.172-2.916-7.039s-4.399-2.916-7.039-2.916zM462.222 587.378h19.911v19.911h-19.911v-19.911z" />
<glyph unicode="&#xe949;" d="M492.089 477.867h-39.822c-2.641 0-5.172 1.049-7.039 2.916s-2.916 4.399-2.916 7.039v39.822c0 2.641 1.049 5.172 2.916 7.039s4.399 2.916 7.039 2.916h39.822c2.641 0 5.172-1.049 7.039-2.916s2.916-4.399 2.916-7.039v-39.822c0-2.641-1.049-5.172-2.916-7.039s-4.399-2.916-7.039-2.916zM462.222 497.778h19.911v19.911h-19.911v-19.911z" />
<glyph unicode="&#xe94a;" d="M521.956 627.2h19.911v-19.911h-19.911v19.911z" />
<glyph unicode="&#xe94b;" d="M521.956 587.378h119.467v-19.911h-119.467v19.911z" />
<glyph unicode="&#xe94c;" d="M561.778 627.2h79.644v-19.911h-79.644v19.911z" />
<glyph unicode="&#xe94d;" d="M521.956 537.6h19.911v-19.911h-19.911v19.911z" />
<glyph unicode="&#xe94e;" d="M521.956 497.778h119.467v-19.911h-119.467v19.911z" />
<glyph unicode="&#xe94f;" d="M561.778 537.6h79.644v-19.911h-79.644v19.911z" />
<glyph unicode="&#xe950;" d="M591.644 159.289h-358.4v318.578h179.2v-159.289h179.2v-159.289z" />
<glyph unicode="&#xe951;" d="M472.178 318.578h59.733v-59.733h-59.733v59.733z" />
<glyph unicode="&#xe952;" d="M591.644 308.622h-14.933c-3.961 0-7.759-1.574-10.56-4.374s-4.374-6.599-4.374-10.56v-25.269c-0.001-21.022-8.354-41.182-23.217-56.047-14.865-14.864-35.025-23.216-56.047-23.217h-45.18c-3.961 0-7.759-1.574-10.56-4.374s-4.374-6.599-4.374-10.56v-14.933h169.244v149.333z" />
<glyph unicode="&#xe953;" d="M541.867 209.067h19.911v-19.911h-19.911v19.911z" />
<glyph unicode="&#xe954;" d="M292.978 318.578h59.733v-59.733h-59.733v59.733z" />
<glyph unicode="&#xe955;" d="M412.444 308.622h-14.933c-3.961 0-7.759-1.574-10.56-4.374s-4.374-6.599-4.374-10.56v-25.269c-0.001-21.022-8.354-41.182-23.217-56.047-14.865-14.864-35.025-23.216-56.047-23.217h-45.18c-3.961 0-7.759-1.574-10.56-4.374s-4.374-6.599-4.374-10.56v-14.933h169.244v149.333z" />
<glyph unicode="&#xe956;" d="M362.667 209.067h19.911v-19.911h-19.911v19.911z" />
<glyph unicode="&#xe957;" d="M292.978 477.867h59.733v-59.733h-59.733v59.733z" />
<glyph unicode="&#xe958;" d="M412.444 467.911h-14.933c-3.961 0-7.759-1.574-10.56-4.374s-4.374-6.599-4.374-10.56v-25.269c-0.001-21.022-8.354-41.182-23.217-56.047-14.865-14.864-35.025-23.216-56.047-23.217h-45.18c-3.961 0-7.759-1.574-10.56-4.374s-4.374-6.599-4.374-10.56v-14.933h169.244v149.333z" />
<glyph unicode="&#xe959;" d="M362.667 368.356h19.911v-19.911h-19.911v19.911z" />
<glyph unicode="&#xe95a;" d="M773.139 440.593l-267.058-79.904-43.859 7.661 32.444 30.489 267.058 79.903c5.059 1.514 10.512 0.957 15.16-1.551s8.109-6.757 9.623-11.817c1.513-5.059 0.955-10.512-1.552-15.159s-6.757-8.109-11.816-9.622z" />
<glyph unicode="&#xe95b;" d="M663.418 355.816l-5.707 19.076 68.855 20.601-3.284 71.759 19.662 5.882 3.868-84.498c0.101-2.218-0.542-4.407-1.827-6.217s-3.139-3.14-5.267-3.776l-76.301-22.826z" />
<glyph unicode="&#xe95c;" d="M542.466 413.244l19.074 5.714 11.429-38.15-19.074-5.714-11.429 38.15z" />
<glyph unicode="&#xe95d;" d="M1024 448c0-282.77-229.23-512-512-512s-512 229.23-512 512c0 282.77 229.23 512 512 512s512-229.23 512-512z" />
<glyph unicode="&#xe95e;" d="M661.333 258.844h39.822v-59.733h-39.822v59.733z" />
<glyph unicode="&#xe95f;" d="M800.711 378.311v-19.911c0-10.562-4.195-20.69-11.663-28.159s-17.597-11.663-28.159-11.663v59.733h39.822z" />
<glyph unicode="&#xe960;" d="M780.8 378.311v-54.407c-6.052-3.498-12.921-5.335-19.911-5.326v59.733h19.911z" />
<glyph unicode="&#xe961;" d="M692.42 413.156c4.689-5.856 7.629-12.918 8.479-20.373 0.851-7.454-0.421-14.997-3.669-21.759-3.249-6.763-8.342-12.47-14.692-16.465s-13.701-6.114-21.204-6.114-14.853 2.12-21.202 6.114c-6.351 3.995-11.444 9.702-14.693 16.465-3.248 6.762-4.52 14.305-3.669 21.759s3.79 14.517 8.479 20.373c3.731-4.66 8.462-8.422 13.843-11.007s11.273-3.926 17.243-3.926 11.862 1.343 17.244 3.926c5.381 2.585 10.111 6.347 13.842 11.007z" />
<glyph unicode="&#xe962;" d="M701.156 438.043c0-7.876-2.336-15.575-6.712-22.124s-10.595-11.652-17.871-14.666-15.284-3.804-23.008-2.266c-7.724 1.536-14.821 5.329-20.39 10.899s-9.362 12.665-10.898 20.389c-1.537 7.726-0.749 15.732 2.265 23.008s8.118 13.496 14.667 17.872 14.248 6.711 22.124 6.711c5.238 0.031 10.43-0.978 15.275-2.968s9.248-4.923 12.951-8.627c3.705-3.705 6.637-8.107 8.627-12.951 1.991-4.846 3-10.037 2.97-15.276z" />
<glyph unicode="&#xe963;" d="M676.268 351.332c-8.168-3.301-17.199-3.801-25.681-1.422s-15.936 7.503-21.196 14.568c-5.26 7.067-8.029 15.677-7.875 24.485 0.156 8.808 3.226 17.316 8.731 24.193 5.711-7.138 13.703-12.095 22.636-14.037-2.673-9.447-1.765-19.548 2.55-28.367 4.316-8.819 11.734-15.734 20.834-19.42z" />
<glyph unicode="&#xe964;" d="M676.266 401.122c-4.742-1.927-9.814-2.912-14.933-2.899-5.971-0.010-11.868 1.328-17.25 3.913-5.383 2.586-10.113 6.353-13.837 11.021-5.494 6.879-8.556 15.384-8.706 24.187s2.619 17.408 7.876 24.47c5.258 7.062 12.706 12.184 21.182 14.567s17.501 1.89 25.668-1.401c-7.355-2.978-13.652-8.083-18.086-14.663s-6.803-14.333-6.803-22.266 2.369-15.688 6.803-22.266c4.434-6.58 10.732-11.685 18.086-14.663z" />
<glyph unicode="&#xe965;" d="M502.044 238.933v-39.822h-119.467v39.822h119.467z" />
<glyph unicode="&#xe966;" d="M442.311 318.578h59.733v-79.644h-59.733v79.644z" />
<glyph unicode="&#xe967;" d="M382.578 238.933h39.822v-39.822h-39.822v39.822z" />
<glyph unicode="&#xe968;" d="M442.311 318.578h39.822v-79.644h-39.822v79.644z" />
<glyph unicode="&#xe969;" d="M760.889 318.578v-119.467c0-10.562-4.195-20.69-11.663-28.159s-17.597-11.663-28.159-11.663h-179.2c-10.562 0-20.69 4.195-28.159 11.663s-11.663 17.597-11.663 28.159v278.756c0 10.562 4.195 20.69 11.663 28.159s17.597 11.663 28.159 11.663h179.2c10.562 0 20.69-4.195 28.159-11.663s11.663-17.597 11.663-28.159v-159.289zM701.156 199.111v59.733h-39.822v-59.733h39.822zM701.156 388.267c0.018 9.051-3.065 17.835-8.736 24.889 4.689 5.856 7.628 12.918 8.479 20.373 0.851 7.454-0.421 14.997-3.669 21.759-3.249 6.763-8.342 12.47-14.693 16.465s-13.7 6.114-21.202 6.114-14.853-2.12-21.202-6.114c-6.351-3.995-11.444-9.702-14.693-16.465s-4.52-14.305-3.669-21.759c0.851-7.455 3.79-14.517 8.479-20.373-3.977-4.968-6.706-10.816-7.958-17.054s-0.991-12.686 0.762-18.803c1.752-6.118 4.946-11.726 9.312-16.354 4.366-4.63 9.777-8.145 15.781-10.253s12.426-2.745 18.728-1.86c6.301 0.885 12.298 3.268 17.49 6.947s9.425 8.549 12.347 14.202 4.446 11.923 4.446 18.286z" />
<glyph unicode="&#xe96a;" d="M571.733 199.111v278.756c0 10.562 4.195 20.69 11.663 28.159s17.597 11.663 28.159 11.663h-69.689c-10.562 0-20.69-4.195-28.159-11.663s-11.663-17.597-11.663-28.159v-278.756c0-10.562 4.195-20.69 11.663-28.159s17.597-11.663 28.159-11.663h69.689c-10.562 0-20.69 4.195-28.159 11.663s-11.663 17.597-11.663 28.159z" />
<glyph unicode="&#xe96b;" d="M502.044 378.311v-59.733h-238.933c-10.562 0-20.69 4.195-28.159 11.663s-11.663 17.597-11.663 28.159v19.911h278.756z" />
<glyph unicode="&#xe96c;" d="M800.711 696.889v-39.822h-577.422v39.822c0 10.562 4.195 20.69 11.663 28.159s17.597 11.663 28.159 11.663h497.778c10.562 0 20.69-4.195 28.159-11.663 7.467-7.468 11.663-17.597 11.663-28.159z" />
<glyph unicode="&#xe96d;" d="M800.711 657.067v-278.756h-39.822v99.556c0 10.562-4.196 20.69-11.663 28.159s-17.597 11.663-28.159 11.663h-179.2c-10.562 0-20.69-4.195-28.159-11.663s-11.663-17.597-11.663-28.159v-99.556h-278.756v278.756h577.422z" />
<glyph unicode="&#xe96e;" d="M352.711 318.578h-89.6c-10.562 0-20.69 4.195-28.159 11.663s-11.663 17.597-11.663 28.159v19.911h89.6v-19.911c0-10.562 4.195-20.69 11.663-28.159s17.597-11.663 28.159-11.663z" />
<glyph unicode="&#xe96f;" d="M352.711 736.711c-10.562 0-20.69-4.195-28.159-11.663s-11.663-17.597-11.663-28.159v-39.822h-89.6v39.822c0 10.562 4.195 20.69 11.663 28.159s17.597 11.663 28.159 11.663h89.6z" />
<glyph unicode="&#xe970;" d="M223.289 657.067v-278.756h89.6v278.756h-89.6z" />
<glyph unicode="&#xe971;" d="M631.467 557.511l-59.733 49.778v69.689l59.733 19.911 59.733-19.911v-69.689l-59.733-49.778z" />
<glyph unicode="&#xe972;" d="M621.511 607.289l34.844-29.033-24.889-20.745-59.733 49.778v69.689l59.733 19.911 24.889-8.3-34.844-11.611v-69.689z" />
<glyph unicode="&#xe973;" d="M283.022 557.511h159.289v-99.556c0-10.562-4.195-20.69-11.663-28.159s-17.597-11.663-28.159-11.663h-79.644c-10.562 0-20.69 4.195-28.159 11.663s-11.663 17.597-11.663 28.159v99.556z" />
<glyph unicode="&#xe974;" d="M372.622 418.133h-49.778c-10.562 0-20.69 4.195-28.159 11.663s-11.663 17.597-11.663 28.159v99.556h49.778v-99.556c0-10.562 4.195-20.69 11.663-28.159s17.597-11.663 28.159-11.663z" />
<glyph unicode="&#xe975;" d="M551.822 467.911h19.911v-59.733h-19.911v59.733z" />
<glyph unicode="&#xe976;" d="M551.822 388.267h19.911v-39.822h-19.911v39.822z" />
<glyph unicode="&#xe977;" d="M551.822 308.622h19.911v-59.733h-19.911v59.733z" />
<glyph unicode="&#xe978;" d="M551.822 228.978h19.911v-39.822h-19.911v39.822z" />
<glyph unicode="&#xe979;" d="M273.067 706.844h19.911v-19.911h-19.911v19.911z" />
<glyph unicode="&#xe97a;" d="M312.889 706.844h19.911v-19.911h-19.911v19.911z" />
<glyph unicode="&#xe97b;" d="M352.711 706.844h19.911v-19.911h-19.911v19.911z" />
<glyph unicode="&#xe97c;" d="M352.711 469.619v-21.623h19.911v21.623c6.642 2.348 12.241 6.97 15.806 13.047s4.866 13.219 3.675 20.163c-1.191 6.944-4.799 13.243-10.185 17.785-5.387 4.541-12.206 7.031-19.251 7.031s-13.864-2.491-19.25-7.031c-5.387-4.542-8.995-10.841-10.187-17.785s0.11-14.086 3.675-20.163c3.565-6.077 9.164-10.699 15.806-13.047zM362.667 507.729c1.969 0 3.893-0.584 5.531-1.677 1.637-1.095 2.914-2.649 3.667-4.468s0.951-3.821 0.567-5.753c-0.385-1.931-1.332-3.705-2.725-5.097-1.392-1.393-3.166-2.34-5.097-2.725-1.931-0.383-3.933-0.187-5.751 0.567-1.819 0.754-3.375 2.030-4.468 3.667-1.095 1.637-1.678 3.562-1.678 5.531 0.003 2.64 1.052 5.17 2.92 7.037 1.866 1.866 4.396 2.916 7.036 2.918z" />
<glyph unicode="&#xe97d;" d="M608.635 644.2l-14.079-14.079 19.911-19.911c0.924-0.925 2.022-1.658 3.229-2.158s2.503-0.758 3.81-0.758 2.602 0.257 3.81 0.758c1.207 0.501 2.305 1.233 3.229 2.158l39.822 39.822-14.079 14.079-32.783-32.783-12.872 12.872z" />
<glyph unicode="&#xe97e;" d="M422.4 557.511h-19.911v9.956c0 10.562-4.195 20.69-11.663 28.159s-17.597 11.663-28.159 11.663c-10.562 0-20.69-4.195-28.159-11.663s-11.663-17.597-11.663-28.159v-9.956h-19.911v9.956c0 15.842 6.293 31.035 17.496 42.238s26.395 17.496 42.238 17.496c15.842 0 31.035-6.293 42.238-17.496s17.496-26.395 17.496-42.238v-9.956z" />
<glyph unicode="&#xe97f;" d="M1024 448c0-282.77-229.23-512-512-512s-512 229.23-512 512c0 282.77 229.23 512 512 512s512-229.23 512-512z" />
<glyph unicode="&#xe980;" d="M523.538 607.289c-15.401-35.113-50.455-59.733-91.183-59.733s-75.782 24.62-91.183 59.733h-107.928v-318.578h398.222v318.578h-107.928z" />
<glyph unicode="&#xe981;" d="M770.844 209.067h-517.689c-11.001 0-19.911 8.91-19.911 19.911v19.911h557.511v-19.911c0-11.001-8.91-19.911-19.911-19.911z" />
<glyph unicode="&#xe982;" d="M731.022 448h-99.556v-159.289h-398.222v-39.822h557.511v99.556l-59.733 99.556z" />
<glyph unicode="&#xe983;" d="M233.244 607.289h39.822v-318.578h-39.822v318.578z" />
<glyph unicode="&#xe984;" d="M233.244 288.711h39.822v-39.822h-39.822v39.822z" />
<glyph unicode="&#xe985;" d="M790.756 348.444h-119.467v99.556h59.733l59.733-99.556z" />
<glyph unicode="&#xe986;" d="M740.978 268.8h49.778v39.822h-49.778c-5.495 0-9.956-4.46-9.956-9.956v-19.911c0-5.495 4.46-9.956 9.956-9.956z" />
<glyph unicode="&#xe987;" d="M701.156 169.244c-27.488 0-49.778 22.29-49.778 49.778s22.29 49.778 49.778 49.778c27.488 0 49.778-22.29 49.778-49.778s-22.29-49.778-49.778-49.778z" />
<glyph unicode="&#xe988;" d="M322.844 169.244c-27.488 0-49.778 22.29-49.778 49.778s22.29 49.778 49.778 49.778c27.488 0 49.778-22.29 49.778-49.778s-22.29-49.778-49.778-49.778z" />
<glyph unicode="&#xe989;" d="M701.156 199.111c-11.001 0-19.911 8.91-19.911 19.911s8.91 19.911 19.911 19.911c11.001 0 19.911-8.91 19.911-19.911s-8.91-19.911-19.911-19.911z" />
<glyph unicode="&#xe98a;" d="M322.844 199.111c-11.001 0-19.911 8.91-19.911 19.911s8.91 19.911 19.911 19.911c11.001 0 19.911-8.91 19.911-19.911s-8.91-19.911-19.911-19.911z" />
<glyph unicode="&#xe98b;" d="M631.467 448h99.556c11.001 0 19.911 8.91 19.911 19.911s-8.91 19.911-19.911 19.911h-99.556v-39.822z" />
<glyph unicode="&#xe98c;" d="M671.289 448h19.911v-99.556h-19.911v99.556z" />
<glyph unicode="&#xe98d;" d="M512 408.178l-19.911-19.911h9.956v-19.911h19.911v19.911h9.956l-19.911 19.911z" />
<glyph unicode="&#xe98e;" d="M571.733 408.178l-19.911-19.911h9.956v-19.911h19.911v19.911h9.956l-19.911 19.911z" />
<glyph unicode="&#xe98f;" d="M492.089 348.444h99.556v-19.911h-99.556v19.911z" />
<glyph unicode="&#xe990;" d="M273.067 428.089h119.467v-99.556h-119.467v99.556z" />
<glyph unicode="&#xe991;" d="M292.978 408.178h79.644v-19.911h-79.644v19.911z" />
<glyph unicode="&#xe992;" d="M292.978 368.356h79.644v-19.911h-79.644v19.911z" />
<glyph unicode="&#xe993;" d="M432.356 567.467c-43.984 0-79.644 35.66-79.644 79.644s35.66 79.644 79.644 79.644c43.984 0 79.644-35.66 79.644-79.644s-35.66-79.644-79.644-79.644z" />
<glyph unicode="&#xe994;" d="M372.622 647.111c0 40.608 30.414 74.050 69.689 78.957-3.265 0.408-6.581 0.687-9.956 0.687-43.984 0-79.644-35.66-79.644-79.644s35.66-79.644 79.644-79.644c3.375 0 6.69 0.279 9.956 0.687-39.275 4.907-69.689 38.349-69.689 78.957z" />
<glyph unicode="&#xe995;" d="M432.356 587.378c32.99 0 59.733 26.743 59.733 59.733s-26.743 59.733-59.733 59.733c-32.99 0-59.733-26.743-59.733-59.733s26.743-59.733 59.733-59.733z" />
<glyph unicode="&#xe996;" d="M437.333 642.133h-34.844v9.956h24.889v34.844h9.956v-44.8z" />
<glyph unicode="&#xe997;" d="M432.356 637.156c-5.495 0-9.956 4.46-9.956 9.956s4.46 9.956 9.956 9.956c5.495 0 9.956-4.46 9.956-9.956s-4.46-9.956-9.956-9.956z" />
<glyph unicode="&#xe998;" d="M233.244 726.756h99.556v-19.911h-99.556v19.911z" />
<glyph unicode="&#xe999;" d="M233.244 686.933h99.556v-19.911h-99.556v19.911z" />
<glyph unicode="&#xe99a;" d="M233.244 647.111h99.556v-19.911h-99.556v19.911z" />
<glyph unicode="&#xe99b;" d="M1024 448c0-282.77-229.23-512-512-512s-512 229.23-512 512c0 282.77 229.23 512 512 512s512-229.23 512-512z" />
<glyph unicode="&#xe99c;" d="M835.99 453.234l-0.126-20.52c0-2.769-1.762-5.539-5.414-7.678l-340.133-197.635c-7.301-4.28-19.26-4.154-26.688 0.126l-205.942 118.833c-3.776 2.139-5.665 5.035-5.665 7.804l0.126 20.519c0-2.769 1.888-5.665 5.665-7.805l205.942-118.833c7.301-4.279 19.26-4.405 26.561-0.125l340.133 197.634c3.651 2.141 5.414 4.91 5.54 7.68z" />
<glyph unicode="&#xe99d;" d="M830.354 461.098c7.394-4.269 7.433-11.23 0.088-15.499l-340.077-197.632c-7.347-4.269-19.283-4.222-26.677 0.047l-205.912 118.883c-7.475 4.316-7.513 11.183-0.167 15.452l340.077 197.632c7.347 4.269 19.282 4.316 26.757 0l205.912-118.883z" />
<glyph unicode="&#xe99e;" d="M392.015 325.705c6.028-3.48 6.219-9.141 0.231-12.621-6.069-3.527-15.922-3.48-21.95 0-6.109 3.526-6.060 9.141 0.009 12.668 5.988 3.479 15.601 3.48 21.71-0.047z" />
<glyph unicode="&#xe99f;" d="M472.117 271.878c2.411-1.393 2.503-3.666 0.108-5.059s-6.401-1.392-8.812 0l-48.544 28.027c-2.492 1.439-2.423 3.713-0.028 5.104 2.395 1.393 6.241 1.393 8.732-0.046l48.544-28.027z" />
<glyph unicode="&#xe9a0;" d="M347.45 343.855c2.411-1.392 2.504-3.666 0.109-5.057-2.396-1.393-6.401-1.393-8.812 0l-48.544 28.027c-2.492 1.438-2.425 3.713-0.028 5.104 2.395 1.393 6.241 1.393 8.731-0.047l48.544-28.027z" />
<glyph unicode="&#xe9a1;" d="M752.758 493.639c1.688-0.974 1.698-2.552 0.020-3.526-1.597-0.928-4.321-0.928-6.009 0.047l-71.933 41.53c-1.687 0.974-1.696 2.552-0.1 3.479 1.677 0.975 4.401 0.975 6.088 0.001l71.933-41.531z" />
<glyph unicode="&#xe9a2;" d="M799.726 448.448l-300.136-174.339-196.968 113.631 300.136 174.46 196.968-113.752z" />
<glyph unicode="&#xe9a3;" d="M690.699 577.055l-154.013-89.502-155.020 89.501 154.013 89.502 155.020-89.501z" />
<glyph unicode="&#xe9a4;" d="M690.697 577.056l-0.485-171.030-154.012-89.502 0.485 171.030 154.012 89.502z" />
<glyph unicode="&#xe9a5;" d="M536.683 487.555l-0.485-171.030-155.020 89.501 0.485 171.030 155.020-89.501z" />
<glyph unicode="&#xe9a6;" d="M425.511 454.565l0.195 17.557 66.624-38.464-0.201-17.557-66.617 38.464z" />
<glyph unicode="&#xe9a7;" d="M626.333 614.167l-154.065-89.428v-51.354l-13.281 19.626-12.987-5.458v52.387l154.064 89.427 26.269-15.2z" />
<glyph unicode="&#xe9a8;" d="M677.064 466.414l-111.077-64.162-0.254 78.11 111.077 64.16 0.254-78.108z" />
<glyph unicode="&#xe9a9;" d="M573.013 478.778l0.188-66.513-2.591-1.496-0.188 66.513 2.591 1.496z" />
<glyph unicode="&#xe9aa;" d="M587.983 487.422l0.188-66.513-2.672-1.542-0.188 66.513 2.672 1.542z" />
<glyph unicode="&#xe9ab;" d="M583.042 484.567l0.188-66.513-1.619-0.935-0.188 66.513 1.619 0.935z" />
<glyph unicode="&#xe9ac;" d="M591.219 489.289l0.189-66.513-1.619-0.935-0.189 66.513 1.619 0.935z" />
<glyph unicode="&#xe9ad;" d="M593.18 490.411l0.189-66.513-0.647-0.373-0.189 66.513 0.647 0.373z" />
<glyph unicode="&#xe9ae;" d="M595.996 492.045l0.189-66.513-1.619-0.935-0.189 66.513 1.619 0.935z" />
<glyph unicode="&#xe9af;" d="M600.050 494.388l0.189-66.513-2.428-1.402-0.189 66.513 2.428 1.402z" />
<glyph unicode="&#xe9b0;" d="M603.286 496.255l0.188-66.513-1.619-0.935-0.188 66.514 1.619 0.934z" />
<glyph unicode="&#xe9b1;" d="M579.089 482.278l0.189-66.513-4.534-2.618-0.189 66.513 4.534 2.618z" />
<glyph unicode="&#xe9b2;" d="M607.502 498.689l0.189-66.513-2.591-1.496-0.189 66.513 2.591 1.496z" />
<glyph unicode="&#xe9b3;" d="M617.464 504.434l0.188-66.513-1.619-0.935-0.188 66.513 1.619 0.935z" />
<glyph unicode="&#xe9b4;" d="M625.641 509.156l0.189-66.513-1.619-0.935-0.189 66.513 1.619 0.935z" />
<glyph unicode="&#xe9b5;" d="M627.67 510.322l0.189-66.513-0.647-0.373-0.189 66.513 0.647 0.373z" />
<glyph unicode="&#xe9b6;" d="M634.459 514.255l0.189-66.513-2.348-1.355-0.189 66.513 2.348 1.355z" />
<glyph unicode="&#xe9b7;" d="M637.709 516.122l0.188-66.513-1.619-0.935-0.189 66.513 1.62 0.935z" />
<glyph unicode="&#xe9b8;" d="M613.577 502.189l0.189-66.513-4.533-2.618-0.189 66.513 4.533 2.618z" />
<glyph unicode="&#xe9b9;" d="M641.901 518.556l0.189-66.513-2.591-1.496-0.188 66.513 2.59 1.496z" />
<glyph unicode="&#xe9ba;" d="M651.952 524.345l0.189-66.513-1.619-0.935-0.189 66.513 1.619 0.935z" />
<glyph unicode="&#xe9bb;" d="M664.908 531.822l0.188-66.513-1.619-0.935-0.188 66.513 1.619 0.935z" />
<glyph unicode="&#xe9bc;" d="M668.939 534.166l0.189-66.513-2.429-1.402-0.188 66.513 2.428 1.402z" />
<glyph unicode="&#xe9bd;" d="M647.978 522.056l0.189-66.513-4.534-2.618-0.189 66.513 4.534 2.618z" />
<glyph unicode="&#xe9be;" d="M622.391 507.288l0.189-66.513-2.591-1.495-0.189 66.513 2.591 1.495z" />
<glyph unicode="&#xe9bf;" d="M630.486 511.967l0.189-66.513-1.619-0.935-0.189 66.513 1.619 0.935z" />
<glyph unicode="&#xe9c0;" d="M656.88 527.2l0.188-66.513-2.591-1.495-0.188 66.513 2.591 1.495z" />
<glyph unicode="&#xe9c1;" d="M660.131 529.067l0.188-66.513-1.619-0.935-0.188 66.513 1.619 0.935z" />
<glyph unicode="&#xe9c2;" d="M662.069 530.189l0.189-66.513-0.647-0.373-0.189 66.513 0.647 0.373z" />
<glyph unicode="&#xe9c3;" d="M672.197 536.033l0.189-66.513-1.619-0.935-0.189 66.513 1.619 0.935z" />
<glyph unicode="&#xe9c4;" d="M611.041 494.033c0.182-29.258-20.537-65.244-46.161-80.145-11.267-6.362-21.445-7.633-29.441-4.725-2 0.728-4.181 1.999-5.998 3.452-6.906 5.271-10.904 14.904-11.085 27.988 0 29.259 20.717 65.064 46.161 79.783 25.624 14.901 46.525 3.090 46.525-26.353z" />
<glyph unicode="&#xe9c5;" d="M597.315 486.187c0-20.719-14.486-45.987-32.511-56.43-8.929-5.055-17.183-5.56-23.079-2.19l-9.77 5.726c5.896-3.368 13.982-2.863 22.909 2.359 18.025 10.275 32.68 35.543 32.511 56.262 0 10.109-3.536 17.351-9.433 20.72l9.94-5.728c5.726-3.368 9.433-10.612 9.433-20.719z" />
<glyph unicode="&#xe9c6;" d="M518.846 403.492c-0.536 1.207-1.323 2.183-2.379 2.818l9.878-5.74c1.055-0.636 1.843-1.612 2.379-2.819-2.964 1.723-7.59 3.189-9.878 5.741z" />
<glyph unicode="&#xe9c7;" d="M516.471 406.313c-0.024 0.015-0.048 0.028-0.072 0.042l9.878-5.74c0.024-0.014 0.048-0.028 0.072-0.042-2.963 1.721-6.929 3.994-9.878 5.74z" />
<glyph unicode="&#xe9c8;" d="M522.371 416.393c-0.972 0.565-1.931 1.222-2.859 1.963l9.877-5.74c0.93-0.742 1.889-1.398 2.86-1.963-2.963 1.721-6.914 4.017-9.878 5.74z" />
<glyph unicode="&#xe9c9;" d="M532.078 410.759l-9.878 5.74c1.104-0.641 2.224-1.17 3.344-1.568l9.878-5.74c-1.12 0.397-2.24 0.926-3.344 1.568z" />
<glyph unicode="&#xe9ca;" d="M516.402 406.355l9.877-5.741c-0.928 0.54-1.987 0.762-3.112 0.732l-9.878 5.74c1.125 0.032 2.183-0.19 3.113-0.73z" />
<glyph unicode="&#xe9cb;" d="M522.767 401.434l-9.878 5.74 6.6 11.137 9.878-5.74-6.6-11.137z" />
<glyph unicode="&#xe9cc;" d="M529.356 412.578c1.951-1.492 4.004-2.661 6.054-3.389l-6.687-11.438c-0.536 1.207-1.324 2.183-2.38 2.818-0.947 0.571-2.030 0.806-3.185 0.775l-0.403 0.098 6.6 11.137z" />
<glyph unicode="&#xe9cd;" d="M523.196 401.286c-1.516 0-3.201-0.505-4.884-1.518-2.863-1.684-5.728-4.548-7.918-8.253l-30.657-52.389c-4.379-7.413-4.379-15.666-0.168-18.36l-9.938 5.726c-4.212 2.697-4.212 10.95 0.337 18.361l30.49 52.39c2.189 3.706 5.053 6.737 8.085 8.253 1.517 1.010 3.201 1.514 4.717 1.514l9.937-5.725z" />
<glyph unicode="&#xe9ce;" d="M518.331 399.822c1.658 0.957 3.308 1.476 4.831 1.52 1.155 0.032 2.238-0.203 3.185-0.774 1.056-0.636 1.843-1.612 2.379-2.819 1.678-3.781 0.829-9.893-2.455-15.469l-30.71-52.454c-2.166-3.75-4.976-6.55-7.916-8.248-2.813-1.624-5.756-2.145-8.065-0.829-4.233 2.704-4.256 10.931 0.205 18.361l30.582 52.38c2.213 3.76 5.092 6.674 7.963 8.332z" />
<glyph unicode="&#xe9cf;" d="M564.548 520.466c25.566 14.76 46.47 2.995 46.554-26.383 0.083-29.379-20.686-65.353-46.253-80.114-11.174-6.451-21.433-7.793-29.45-4.806-2.037 0.752-4.089 1.923-6.014 3.459-6.814 5.327-10.926 14.925-10.962 27.953-0.083 29.377 20.559 65.13 46.126 79.891zM564.805 429.834c18.024 10.407 32.55 35.566 32.49 56.279-0.058 20.564-14.678 28.896-32.703 18.49-17.897-10.333-32.422-35.493-32.364-56.057 0.059-20.712 14.68-29.044 32.577-18.712z" />
<glyph unicode="&#xe9d0;" d="M519.506 440.871c0-12.971 3.009-22.91 9.916-28.302l-9.938 5.73c-6.739 5.389-10.95 14.99-10.95 27.961 0 29.479 20.552 65.191 46.156 80.014 12.802 7.411 24.594 8.086 33.016 3.201l10.156-5.929c-8.423 4.886-19.593 3.184-32.396-4.228-25.605-14.823-46.128-48.967-45.959-78.446z" />
<glyph unicode="&#xe9d1;" d="M208.645 539.45l75.705-43.994 76.2 43.994-75.705 43.994-76.2-43.994z" />
<glyph unicode="&#xe9d2;" d="M208.645 539.444l0.238-84.069 75.705-43.996-0.238 84.070-75.705 43.994z" />
<glyph unicode="&#xe9d3;" d="M284.356 495.461l0.238-84.069 76.2 43.993-0.238 84.070-76.2-43.994z" />
<glyph unicode="&#xe9d4;" d="M339 479.247l-0.096 8.631-32.749-18.908 0.099-8.63 32.745 18.906z" />
<glyph unicode="&#xe9d5;" d="M328.912 521.211v-25.751l-6.383 2.683-6.529-9.647v25.244h-0.001l12.913 7.472z" />
<glyph unicode="&#xe9d6;" d="M253.179 565.167l75.73-43.959-12.913-7.472-75.73 43.959 12.913 7.472z" />
<glyph unicode="&#xe9d7;" d="M704.534 335.751l62.415-36.272 62.824 36.271-62.415 36.272-62.824-36.271z" />
<glyph unicode="&#xe9d8;" d="M704.534 335.756l0.196-69.311 62.415-36.272-0.196 69.311-62.415 36.272z" />
<glyph unicode="&#xe9d9;" d="M766.956 299.485l0.197-69.311 62.824 36.271-0.197 69.311-62.824-36.271z" />
<glyph unicode="&#xe9da;" d="M698.577 332.304l68.346-39.719 68.793 39.719-68.346 39.719-68.793-39.719z" />
<glyph unicode="&#xe9db;" d="M698.577 332.301l0.215-16.524 68.131-39.893v16.698l-68.346 39.719z" />
<glyph unicode="&#xe9dc;" d="M766.933 292.582v-16.698l69.010 39.893-0.216 16.524-68.793-39.719z" />
<glyph unicode="&#xe9dd;" d="M612.689 281.784l62.415-36.271 62.824 36.271-62.415 36.271-62.824-36.271z" />
<glyph unicode="&#xe9de;" d="M612.689 281.789l0.197-69.311 62.415-36.271-0.197 69.311-62.415 36.271z" />
<glyph unicode="&#xe9df;" d="M675.111 245.518l0.197-69.311 62.824 36.271-0.197 69.311-62.824-36.271z" />
<glyph unicode="&#xe9e0;" d="M606.734 278.338l68.346-39.719 68.793 39.718-68.346 39.719-68.793-39.718z" />
<glyph unicode="&#xe9e1;" d="M606.734 278.333l0.215-16.524 68.131-39.893v16.698l-68.346 39.719z" />
<glyph unicode="&#xe9e2;" d="M675.089 238.616v-16.699l69.008 39.893-0.215 16.524-68.793-39.718z" />
<glyph unicode="&#xe9e3;" d="M217.866 616.228l66.528-38.662 66.963 38.661-66.528 38.662-66.963-38.661z" />
<glyph unicode="&#xe9e4;" d="M217.866 616.233l0.209-73.878 66.528-38.661-0.209 73.877-66.528 38.662z" />
<glyph unicode="&#xe9e5;" d="M284.4 577.561l0.209-73.878 66.963 38.662-0.209 73.878-66.963-38.662z" />
<glyph unicode="&#xe9e6;" d="M332.418 563.316l-0.083 7.584-28.779-16.615 0.086-7.584 28.776 16.615z" />
<glyph unicode="&#xe9e7;" d="M323.569 600.201v-22.629l-5.609 2.357-5.738-8.478v22.183l11.347 6.566z" />
<glyph unicode="&#xe9e8;" d="M257.014 638.822l66.55-38.63-11.347-6.565-66.55 38.629 11.347 6.566z" />
<glyph unicode="&#xe9e9;" d="M225.977 685.837l58.462-33.974 58.845 33.974-58.462 33.974-58.845-33.974z" />
<glyph unicode="&#xe9ea;" d="M225.977 685.833l0.184-64.922 58.462-33.974-0.184 64.922-58.462 33.974z" />
<glyph unicode="&#xe9eb;" d="M284.444 651.859l0.184-64.922 58.845 33.974-0.184 64.922-58.845-33.974z" />
<glyph unicode="&#xe9ec;" d="M326.63 639.346l-0.073 6.665-25.291-14.6 0.076-6.665 25.287 14.6z" />
<glyph unicode="&#xe9ed;" d="M318.86 671.744v-19.885l-4.929 2.072-5.041-7.45v19.494h-0.001l9.971 5.77z" />
<glyph unicode="&#xe9ee;" d="M260.371 705.7l58.482-33.946-9.971-5.771-58.482 33.947 9.971 5.77z" />
<glyph unicode="&#xe9ef;" d="M188 275.093l58.462-33.975 58.845 33.974-58.462 33.975-58.845-33.974z" />
<glyph unicode="&#xe9f0;" d="M188 275.088l0.184-64.922 58.462-33.974-0.184 64.922-58.462 33.974z" />
<glyph unicode="&#xe9f1;" d="M246.467 241.114l0.184-64.922 58.845 33.974-0.184 64.922-58.845-33.974z" />
<glyph unicode="&#xe9f2;" d="M288.653 228.602l-0.074 6.664-25.291-14.6 0.077-6.665 25.287 14.601z" />
<glyph unicode="&#xe9f3;" d="M280.882 261.001v-19.886l-4.929 2.072-5.041-7.45v19.494h-0.001l9.971 5.771z" />
<glyph unicode="&#xe9f4;" d="M222.393 294.955l58.482-33.946-9.971-5.77-58.482 33.946 9.971 5.77z" />
<glyph unicode="&#xe9f5;" horiz-adv-x="1049" d="M725.854 783.61c-9.267 0-16.781 7.514-16.781 16.781 0 9.266 7.514 16.78 16.781 16.78 18.504 0 33.561 15.057 33.561 33.561v33.561c0 18.505-15.057 33.561-33.561 33.561-9.267 0-16.781 7.513-16.781 16.78s7.514 16.78 16.781 16.78c37.011 0 67.122-30.11 67.122-67.122v-33.561c0-37.011-30.111-67.122-67.122-67.122z" />
<glyph unicode="&#xe9f6;" horiz-adv-x="1049" d="M917.413 743.098l-131.364 131.363c-6.293 6.295-14.829 9.831-23.732 9.831h-39.319c-8.9 0-17.437-3.537-23.732-9.831l-131.363-131.363c-6.294-6.295-9.829-14.831-9.829-23.731v-338.492c0-18.536 15.027-33.561 33.561-33.561h302.049c18.533 0 33.561 15.025 33.561 33.561v338.491c-0.002 8.899-3.539 17.437-9.832 23.732z" />
<glyph unicode="&#xe9f7;" horiz-adv-x="1049" d="M558.049 719.355v-338.489c0-18.536 15.025-33.561 33.561-33.561h268.488c18.536 0 33.561 15.025 33.561 33.561v338.489c0 8.9-3.537 17.438-9.829 23.732l-131.364 131.364c-6.295 6.295-14.829 9.829-23.732 9.829h-5.758c-8.899 0-17.437-3.536-23.732-9.829l-131.363-131.364c-6.295-6.294-9.832-14.832-9.832-23.732z" />
<glyph unicode="&#xe9f8;" horiz-adv-x="1049" d="M725.854 750.049c27.803 0 50.341 22.539 50.341 50.342 0 27.802-22.538 50.341-50.341 50.341s-50.341-22.539-50.341-50.341c0-27.803 22.538-50.342 50.341-50.342z" />
<glyph unicode="&#xe9f9;" horiz-adv-x="1049" d="M792.976 582.244c9.267 0 16.781 7.514 16.781 16.781v3.226c0 35.233-28.663 63.896-63.896 63.896h-3.226v33.56c0 9.267-7.514 16.781-16.781 16.781s-16.781-7.514-16.781-16.781v-33.56h-3.226c-35.233 0-63.896-28.663-63.896-63.896 0-29.374 19.902-54.864 48.4-61.989l62.866-15.715c13.529-3.384 22.978-15.486 22.978-29.431 0-16.727-13.607-30.334-30.334-30.334h-40.013c-16.727 0-30.334 13.607-30.334 30.334v3.226c0 9.267-7.514 16.781-16.781 16.781s-16.781-7.514-16.781-16.781v-3.226c0-35.233 28.663-63.896 63.896-63.896h3.226v-33.56c0-9.267 7.514-16.781 16.781-16.781s16.781 7.514 16.781 16.781v33.56h3.226c35.233 0 63.896 28.663 63.896 63.896 0 29.374-19.902 54.864-48.4 61.989l-62.866 15.715c-13.529 3.384-22.978 15.486-22.978 29.431 0 16.727 13.607 30.334 30.334 30.334h40.013c16.727 0 30.334-13.607 30.334-30.334v-3.226c0-9.267 7.514-16.781 16.781-16.781z" />
<glyph unicode="&#xe9fa;" horiz-adv-x="1049" d="M725.854 783.61c-37.011 0-67.122 30.111-67.122 67.122v33.561c0 37.011 30.111 67.122 67.122 67.122 9.267 0 16.781-7.513 16.781-16.78s-7.514-16.78-16.781-16.78c-18.504 0-33.561-15.056-33.561-33.561v-33.561c0-18.504 15.057-33.561 33.561-33.561 9.267 0 16.781-7.514 16.781-16.78 0-9.267-7.514-16.781-16.781-16.781z" />
</font>
</defs>
</svg>
